<?xml version="1.0" encoding="utf-8"?>
<!-- Generator: Adobe Illustrator 18.0.0, SVG Export Plug-In . SVG Version: 6.00 Build 0)  -->
<!DOCTYPE svg PUBLIC "-//W3C//DTD SVG 1.1//EN" "http://www.w3.org/Graphics/SVG/1.1/DTD/svg11.dtd">
<svg version="1.1" id="Layer_1" xmlns="http://www.w3.org/2000/svg" xmlns:xlink="http://www.w3.org/1999/xlink" x="0px" y="0px"
	 viewBox="0 0 800 229.6" enable-background="new 0 0 800 229.6" xml:space="preserve">
<g>
	<g>
		<g>
			<path fill="#404042" d="M232.8,134.4h-15.1v43.8H194V67.3h44.4c5.4,0,10.4,0.7,14.9,2.2c4.5,1.5,8.2,3.7,11.4,6.6
				c3.1,2.9,5.5,6.5,7.3,10.8c1.7,4.3,2.6,9.3,2.6,15c0,6.6-1.7,12.2-5,17.1c-3.3,4.8-8,8.3-14.2,10.5l24,48.7h-26.4L232.8,134.4z
				 M234.2,87.6h-16.5v26.5h14.2c2.3,0,4.6-0.1,6.9-0.4c2.3-0.2,4.3-0.8,6.1-1.7c1.8-0.9,3.2-2.1,4.3-3.8c1.1-1.7,1.6-3.9,1.6-6.7
				c0-2.5-0.3-4.7-1-6.4c-0.7-1.7-1.7-3.2-3-4.2C244.1,88.7,240,87.6,234.2,87.6z"/>
			<path fill="#404042" d="M313.9,179.7c-6.1,0-11.3-1.2-15.7-3.5c-4.4-2.3-8-5.4-10.7-9.3c-2.8-3.9-4.8-8.3-6.2-13.3
				c-1.3-5-2-10.3-2-15.7c0-5.6,0.7-10.9,2-15.9c1.3-5.1,3.5-9.5,6.3-13.3c2.9-3.8,6.5-6.9,11-9.2c4.4-2.3,9.7-3.4,15.9-3.4
				c9.4,0,17.2,3.4,23.4,10.3c3,3.4,5.4,7.2,7.2,11.5c1.8,4.3,2.8,9,2.8,14.3v10.4h-46.8c0.3,2.3,0.7,4.6,1.1,6.9
				c0.4,2.2,1.2,4.3,2.2,6c1,1.8,2.5,3.2,4.2,4.3c1.8,1.1,4.2,1.6,7.2,1.6c3.8,0,6.9-0.9,9.5-2.8c2.5-1.8,4.9-4.2,7.1-7.1l16.1,10.1
				c-2.4,3.6-4.8,6.6-7.2,8.9c-2.4,2.3-5,4.1-7.8,5.4C328.2,178.4,321.7,179.7,313.9,179.7z M314.4,112.9c-2.3,0-4.2,0.3-5.7,1
				c-1.5,0.7-2.8,1.7-3.8,2.9c-1,1.2-1.8,2.7-2.3,4.4c-0.5,1.7-1,3.5-1.3,5.4h26.2c-0.3-4.1-1.5-7.4-3.7-9.8
				C321.5,114.2,318.4,112.9,314.4,112.9z"/>
			<path fill="#404042" d="M383.7,179.7c-6.2,0-11.5-1.1-16.1-3.4c-4.5-2.2-8.3-5.3-11.2-9.1c-2.9-3.8-5.1-8.2-6.5-13.3
				c-1.4-5-2.1-10.4-2.1-16c0-12.9,3.2-23.2,9.6-30.7c6.4-7.6,15-11.3,25.9-11.3c6.8,0,13.1,1.7,18.9,5.2c3.1,1.7,5.7,4.1,7.9,7
				c2.2,3,4.1,6.8,5.8,11.4l-18.3,7.2c-0.7-1.7-1.4-3.3-2.2-4.8c-0.8-1.5-1.7-2.8-2.8-3.9c-1.1-1.1-2.4-2-3.8-2.6
				c-1.4-0.6-3.2-1-5.3-1c-4.9,0-8.3,1.9-10.3,5.6c-2.3,3.9-3.4,9.9-3.4,17.8c0,7.9,1.1,13.8,3.4,17.8c2.1,3.7,5.6,5.6,10.6,5.6
				c2.1,0,3.9-0.4,5.4-1.1c1.5-0.7,2.9-1.7,4.2-2.9c1.2-1.2,2.4-2.6,3.4-4.1c1-1.5,2-3.2,3-4.8l16.8,9.5c-2.5,4.4-4.9,8-7.2,10.7
				c-2.3,2.7-4.7,4.9-7.2,6.5C397.5,178.2,391.3,179.7,383.7,179.7z"/>
			<path fill="#404042" d="M424.4,65.8h21.5v20.3h-21.5V65.8z M424.4,97.4h21.9v80.8h-21.9V97.4z"/>
			<path fill="#404042" d="M487.8,179.7c-6.2,0-11.5-1.1-16.1-3.4c-4.5-2.2-8.3-5.3-11.2-9.1c-2.9-3.8-5.1-8.2-6.5-13.3
				c-1.4-5-2.1-10.4-2.1-16c0-12.9,3.2-23.2,9.6-30.7c6.4-7.6,15-11.3,25.9-11.3c6.8,0,13.1,1.7,18.9,5.2c3.1,1.7,5.7,4.1,7.9,7
				c2.2,3,4.1,6.8,5.8,11.4l-18.3,7.2c-0.7-1.7-1.4-3.3-2.2-4.8c-0.8-1.5-1.7-2.8-2.8-3.9c-1.1-1.1-2.4-2-3.8-2.6
				c-1.4-0.6-3.2-1-5.3-1c-4.9,0-8.3,1.9-10.3,5.6c-2.3,3.9-3.4,9.9-3.4,17.8c0,7.9,1.1,13.8,3.4,17.8c2.1,3.7,5.6,5.6,10.6,5.6
				c2.1,0,3.9-0.4,5.4-1.1c1.5-0.7,2.9-1.7,4.2-2.9c1.2-1.2,2.4-2.6,3.4-4.1c1-1.5,2-3.2,3-4.8l16.8,9.5c-2.5,4.4-4.9,8-7.2,10.7
				c-2.3,2.7-4.7,4.9-7.2,6.5C501.5,178.2,495.3,179.7,487.8,179.7z"/>
			<path fill="#404042" d="M528.4,67.3h21.9v110.9h-21.9V67.3z"/>
			<path fill="#59C31B" d="M603.8,172.7c-3.8,2.4-7.5,4.1-11.1,5.3c-3.6,1.1-7.7,1.7-12.2,1.7c-3.3,0-6.3-0.5-9-1.6
				c-2.7-1.1-5.1-2.6-7.1-4.6c-2-2-3.5-4.3-4.6-7c-1.1-2.7-1.6-5.7-1.6-8.9c0-8.2,3-14.9,8.9-19.8c4.3-3.4,8.9-5.8,13.8-7.3
				c4.9-1.5,10-2.7,15.1-3.7c1.9-0.4,4.1-0.7,6.6-0.9v-4.6c0-2.9-0.9-5-2.8-6.3c-1.9-1.3-4.2-1.9-6.9-1.9c-4.1,0-7.3,0.9-9.8,2.8
				c-2.4,1.8-4.7,4.3-6.8,7.5l-14.6-11c3.5-5.6,7.9-9.7,13.3-12.3c5.4-2.6,11.4-3.9,17.8-3.9c11.4,0,19.5,2.7,24.3,8
				c4.9,5.3,7.3,13.5,7.3,24.7v38.2c0,2.7,0.2,4.9,0.6,6.6c0.2,0.6-0.1,1.1-0.7,1.6v3.3h-19.4L603.8,172.7z M595.8,142.8
				c-2.6,0.5-5,1.3-7.4,2.3c-2.3,1-4.3,2.3-6,4c-1.6,1.6-2.5,3.8-2.5,6.3c0,2.2,0.6,3.9,1.9,5.3c1.2,1.3,3,2,5.3,2
				c2.7,0,5.4-0.8,8.3-2.5c2.8-1.6,5.2-3.3,7.2-4.8v-14C600.7,141.8,598.4,142.3,595.8,142.8z"/>
			<path fill="#59C31B" d="M662.8,144.8l-7.3,8.5v24.9h-21.9V67.3h21.9v57.5l21-27.4h25.3l-24.3,30.7l25.2,50.1h-23.4L662.8,144.8z"
				/>
			<path fill="#59C31B" d="M704,65.8h21.5v20.3H704V65.8z M704,97.4H726v80.8H704V97.4z"/>
		</g>
	</g>
	<g>
		<path fill="#8DC53E" d="M143.5,45.3c0,0-5.3,2.9-10.7,8.9c15,5.4,25.3,18.3,25.6,34.2c0.5-2.7,0.9-5.6,1.1-8.6
			C160.1,70.3,161.5,61.9,143.5,45.3z"/>
		<path fill="#8DC53E" d="M104.6,53.8c-6.2-2.2-14.2-2.3-29.5,4c0,0,1,7.7,3.6,17.8C83.4,65.2,93.1,57.1,104.6,53.8z"/>
		<path fill="#5BC21B" d="M131.7,55.2c-4.4-1.5-9.1-2.4-13.9-2.4c-4.1,0-8.2,0.6-12.1,1.8c2.8,1,5.2,2.4,7.8,3.8
			c2.5,1.3,4.8,2.8,6.9,4.2c-5.9,5.6-11.7,12.1-15.9,19.3c-1.3-2-1.8-3.3-1.8-3.3s0.5,1.5,1.6,3.7c-3.6,6.4-5.8,13.1-5.4,20
			c0.2,3.7,0.5,8.6,2,13.4c-11-9-17.4-25.7-21-38.8c-2.1,5-3.1,10.6-2.6,16.4c3.1,32.9,27.8,75.3,37.1,90.2c1.6,2.5,5.2,2.5,6.8,0
			c9.2-14.9,34-57.3,37.1-90.2c0.1-1.4,0.2-3.2,0.2-4.6c0,0-0.4,0.5-0.5,0.6c-5.8,31.9-30.9,40.6-31.2,40.6
			c-6.2-33.3,9.4-50.5,9.4-50.5s-19.2,17-11.8,50.4c-22.1-1-23.1-17.5-23.7-27.8c-1-18.5,18-36.7,30.9-46.9L131.7,55.2z"/>
	</g>
</g>
</svg>
